<svg width="0" height="0" class="hidden">
  <symbol xmlns="http://www.w3.org/2000/svg" viewBox="0 0 24 24" id="location-pin-1">
    <title>Location Pin</title>
    <desc>A color styled icon from Orion Icon Library.</desc>
    <path data-name="layer1"
    d="M32 2a18 18 0 0 0-18 18 18.1 18.1 0 0 0 .2 2.2C15.7 36.8 32 44.9 32 62c0-17.1 16.3-25.2 17.8-39.7A17.9 17.9 0 0 0 32 2zm0 24a6 6 0 1 1 6-6 6 6 0 0 1-6 6z"
    fill="#ff8d54"></path>
    <path data-name="opacity" d="M32 61c0-18.3-12.7-26.9-13.9-42.4-.1-.8-.1-1.5-.1-2.3a24.8 24.8 0 0 1 1.8-9.4A17.9 17.9 0 0 0 14 20a17.7 17.7 0 0 0 .2 2.2C15.7 36.8 32 44.9 32 62z"
    fill="#000032" opacity=".2"></path>
    <path data-name="stroke" d="M32 62c0-17.1 16.3-25.2 17.8-39.7A18 18 0 1 0 14 20a18.1 18.1 0 0 0 .2 2.2C15.7 36.8 32 44.9 32 62z"
    fill="none" stroke="#973300" stroke-linecap="round" stroke-linejoin="round"
    stroke-width="1"></path>
    <circle data-name="stroke" cx="32" cy="20" r="6" fill="none" stroke="#973300"
    stroke-linecap="round" stroke-linejoin="round" stroke-width="1"></circle>
  </symbol>
</svg>